# xmcd
#
# Track frame offsets:
#	150
#	16107
#	32301
#	47512
#	55555
#	66350
#	77159
#	85634
#	102023
#	117478
#	127785
#	142432
#	151360
#	164767
#	184506
#	191114
#	207691
#	226385
#	240754
#	255255
#	268955
#
# Disc length: 3600 seconds
#
# Revision: 0
# Processed by: cddbd v1.5.2PL0 Copyright (c) Steve Scherf et al.
# Submitted via: EZCDAudioConverter 2.1.7.1
#
DISCID=160e0e15
DTITLE=Legendary Stardust Cowboy - An Anthology 2/2
DYEAR=1900
DGENRE=
TTITLE0=Ghost Riders [Live]
TTITLE1=New Jersey Turnpike
TTITLE2=Relaxation
TTITLE3=World's Worst Titles
TTITLE4=Idiots Running Sideways
TTITLE5=Red Eyes
TTITLE6=Saturn
TTITLE7=I Love My Bed
TTITLE8=As I Gaze (Mixed Emotions)
TTITLE9=All Night Cowboy
TTITLE10=Gears In The Sun
TTITLE11=Play My Guitar
TTITLE12=Tokyo
TTITLE13=Color Me Blue
TTITLE14=Begonia Bounce
TTITLE15=Global Warming
TTITLE16=Riders On The Storm
TTITLE17=You Must Have Been
TTITLE18=Hocus Pocus
TTITLE19=Hot Tub Teddy
TTITLE20=Contructive Criticism
EXTD=
EXTT0=
EXTT1=
EXTT2=
EXTT3=
EXTT4=
EXTT5=
EXTT6=
EXTT7=
EXTT8=
EXTT9=
EXTT10=
EXTT11=
EXTT12=
EXTT13=
EXTT14=
EXTT15=
EXTT16=
EXTT17=
EXTT18=
EXTT19=
EXTT20=
PLAYORDER=
